<svg xmlns="http://www.w3.org/2000/svg" viewBox="0 0 64 64" fill="none">
  <rect x="4" y="4" width="56" height="56" rx="14" fill="#0f172a" stroke="#334155" stroke-width="2"/>
  <path d="M22 28h20v6a10 10 0 0 1-10 10 10 10 0 0 1-10-10v-6Z" fill="#f59e0b"/>
  <path d="M19 29h3v4a6 6 0 0 1-6-6v-1a1 1 0 0 1 1-1h2" stroke="#fbbf24" stroke-width="2"/>
  <path d="M45 29h3a1 1 0 0 1 1 1v1a6 6 0 0 1-6 6v-4" stroke="#fbbf24" stroke-width="2"/>
  <path d="M32 44v6" stroke="#f59e0b" stroke-width="2.5" stroke-linecap="round"/>
  <path d="M26 52h12" stroke="#f59e0b" stroke-width="2.5" stroke-linecap="round"/>
</svg>
