<svg xmlns="http://www.w3.org/2000/svg" viewBox="0 0 64 64" fill="none">
  <defs>
    <linearGradient id="peaceHands" x1="12" y1="14" x2="52" y2="50" gradientUnits="userSpaceOnUse">
      <stop stop-color="#34d399" />
      <stop offset="1" stop-color="#22c55e" />
    </linearGradient>
  </defs>
  <path d="M14 24c2.8-5.6 8.7-9.3 15-9.3h6c6.3 0 12.2 3.7 15 9.3l2.2 4.4-7.6 8a6.5 6.5 0 0 1-8.9.4L32 33.6l-3.7 3.2a6.5 6.5 0 0 1-8.9-.4l-7.6-8L14 24Z" fill="url(#peaceHands)"/>
  <path d="m24 31 4.3 3.6a5.5 5.5 0 0 0 7.3 0L40 31" stroke="#065f46" stroke-width="2.5" stroke-linecap="round"/>
  <path d="M10.7 28.5 6.5 33a3 3 0 0 0 0 4.2l3.6 3.6a3 3 0 0 0 4.2 0l5.4-5.5M53.3 28.5l4.2 4.5a3 3 0 0 1 0 4.2l-3.6 3.6a3 3 0 0 1-4.2 0l-5.4-5.5" stroke="#047857" stroke-width="2.2" stroke-linecap="round" stroke-linejoin="round"/>
  <path d="m20.7 41.4 2.8 2.4M25.5 43.7l2.6 2.2M43.3 41.4l-2.8 2.4M38.5 43.7l-2.6 2.2" stroke="#047857" stroke-width="2" stroke-linecap="round"/>
</svg>
